<svg xmlns="http://www.w3.org/2000/svg" xmlns:xlink="http://www.w3.org/1999/xlink" contentStyleType="text/css" height="825px" preserveAspectRatio="none" style="width:2188px;height:825px;background:#FFFFFF;" version="1.1" viewBox="0 0 2188 825" width="2188px" zoomAndPan="magnify"><defs/><g><!--cluster Style Interface--><g id="cluster_Style Interface"><path d="M1200.5,440.71 L1316.5,440.71 A3.75,3.75 0 0 1 1319,443.21 L1326,463.0069 L1682.5,463.0069 A2.5,2.5 0 0 1 1685,465.5069 L1685,767.44 A2.5,2.5 0 0 1 1682.5,769.94 L1200.5,769.94 A2.5,2.5 0 0 1 1198,767.44 L1198,443.21 A2.5,2.5 0 0 1 1200.5,440.71 " fill="none" style="stroke:#000000;stroke-width:1.5;"/><line style="stroke:#000000;stroke-width:1.5;" x1="1198" x2="1326" y1="463.0069" y2="463.0069"/><text fill="#000000" font-family="sans-serif" font-size="14" font-weight="bold" lengthAdjust="spacing" textLength="115" x="1202" y="455.7051">Style Interface</text></g><!--cluster Icon Family Interface--><g id="cluster_Icon Family Interface"><path d="M1711.5,448.86 L1875.5,448.86 A3.75,3.75 0 0 1 1878,451.36 L1885,471.1569 L2178.5,471.1569 A2.5,2.5 0 0 1 2181,473.6569 L2181,767.44 A2.5,2.5 0 0 1 2178.5,769.94 L1711.5,769.94 A2.5,2.5 0 0 1 1709,767.44 L1709,451.36 A2.5,2.5 0 0 1 1711.5,448.86 " fill="none" style="stroke:#000000;stroke-width:1.5;"/><line style="stroke:#000000;stroke-width:1.5;" x1="1709" x2="1885" y1="471.1569" y2="471.1569"/><text fill="#000000" font-family="sans-serif" font-size="14" font-weight="bold" lengthAdjust="spacing" textLength="163" x="1713" y="463.8551">Icon Family Interface</text></g><!--cluster Component Interface--><g id="cluster_Component Interface"><path d="M8.5,226.78 L176.5,226.78 A3.75,3.75 0 0 1 179,229.28 L186,249.0769 L322.5,249.0769 A2.5,2.5 0 0 1 325,251.5769 L325,775.59 A2.5,2.5 0 0 1 322.5,778.09 L8.5,778.09 A2.5,2.5 0 0 1 6,775.59 L6,229.28 A2.5,2.5 0 0 1 8.5,226.78 " fill="none" style="stroke:#000000;stroke-width:1.5;"/><line style="stroke:#000000;stroke-width:1.5;" x1="6" x2="186" y1="249.0769" y2="249.0769"/><text fill="#000000" font-family="sans-serif" font-size="14" font-weight="bold" lengthAdjust="spacing" textLength="167" x="10" y="241.7751">Component Interface</text></g><!--cluster Iterator Interface--><g id="cluster_Iterator Interface"><path d="M351.5,605.75 L487.5,605.75 A3.75,3.75 0 0 1 490,608.25 L497,628.0469 L841.5,628.0469 A2.5,2.5 0 0 1 844,630.5469 L844,816.33 A2.5,2.5 0 0 1 841.5,818.83 L351.5,818.83 A2.5,2.5 0 0 1 349,816.33 L349,608.25 A2.5,2.5 0 0 1 351.5,605.75 " fill="none" style="stroke:#000000;stroke-width:1.5;"/><line style="stroke:#000000;stroke-width:1.5;" x1="349" x2="497" y1="628.0469" y2="628.0469"/><text fill="#000000" font-family="sans-serif" font-size="14" font-weight="bold" lengthAdjust="spacing" textLength="135" x="353" y="620.7451">Iterator Interface</text></g><!--cluster Visitor Interface--><g id="cluster_Visitor Interface"><path d="M870.5,440.71 L998.5,440.71 A3.75,3.75 0 0 1 1001,443.21 L1008,463.0069 L1171.5,463.0069 A2.5,2.5 0 0 1 1174,465.5069 L1174,775.59 A2.5,2.5 0 0 1 1171.5,778.09 L870.5,778.09 A2.5,2.5 0 0 1 868,775.59 L868,443.21 A2.5,2.5 0 0 1 870.5,440.71 " fill="none" style="stroke:#000000;stroke-width:1.5;"/><line style="stroke:#000000;stroke-width:1.5;" x1="868" x2="1008" y1="463.0069" y2="463.0069"/><text fill="#000000" font-family="sans-serif" font-size="14" font-weight="bold" lengthAdjust="spacing" textLength="127" x="872" y="455.7051">Visitor Interface</text></g><!--cluster Factories--><g id="cluster_Factories"><path d="M1308.5,259.38 L1382.5,259.38 A3.75,3.75 0 0 1 1385,261.88 L1392,281.6769 L1934.5,281.6769 A2.5,2.5 0 0 1 1937,284.1769 L1937,372.17 A2.5,2.5 0 0 1 1934.5,374.67 L1308.5,374.67 A2.5,2.5 0 0 1 1306,372.17 L1306,261.88 A2.5,2.5 0 0 1 1308.5,259.38 " fill="none" style="stroke:#000000;stroke-width:1.5;"/><line style="stroke:#000000;stroke-width:1.5;" x1="1306" x2="1392" y1="281.6769" y2="281.6769"/><text fill="#000000" font-family="sans-serif" font-size="14" font-weight="bold" lengthAdjust="spacing" textLength="73" x="1310" y="274.3751">Factories</text></g><!--cluster Explorer--><g id="cluster_Explorer"><path d="M1335.5,6 L1402.5,6 A3.75,3.75 0 0 1 1405,8.5 L1412,28.2969 L1546.5,28.2969 A2.5,2.5 0 0 1 1549,30.7969 L1549,200.28 A2.5,2.5 0 0 1 1546.5,202.78 L1335.5,202.78 A2.5,2.5 0 0 1 1333,200.28 L1333,8.5 A2.5,2.5 0 0 1 1335.5,6 " fill="none" style="stroke:#000000;stroke-width:1.5;"/><line style="stroke:#000000;stroke-width:1.5;" x1="1333" x2="1412" y1="28.2969" y2="28.2969"/><text fill="#000000" font-family="sans-serif" font-size="14" font-weight="bold" lengthAdjust="spacing" textLength="66" x="1337" y="20.9951">Explorer</text></g><!--class IStyle--><g id="elem_IStyle"><rect codeLine="3" fill="#F1F1F1" height="80.5938" id="IStyle" rx="2.5" ry="2.5" style="stroke:#181818;stroke-width:0.5;" width="347" x="1267.5" y="475.71"/><ellipse cx="1418.75" cy="491.71" fill="#B4A7E5" rx="11" ry="11" style="stroke:#181818;stroke-width:1.0;"/><path d="M1414.6719,487.4756 L1414.6719,485.3194 L1422.0625,485.3194 L1422.0625,487.4756 L1419.5938,487.4756 L1419.5938,495.5538 L1422.0625,495.5538 L1422.0625,497.71 L1414.6719,497.71 L1414.6719,495.5538 L1417.1406,495.5538 L1417.1406,487.4756 L1414.6719,487.4756 Z " fill="#000000"/><text fill="#000000" font-family="sans-serif" font-size="14" font-style="italic" lengthAdjust="spacing" textLength="36" x="1439.25" y="496.5567">IStyle</text><line style="stroke:#181818;stroke-width:0.5;" x1="1268.5" x2="1613.5" y1="507.71" y2="507.71"/><line style="stroke:#181818;stroke-width:0.5;" x1="1268.5" x2="1613.5" y1="515.71" y2="515.71"/><ellipse cx="1278.5" cy="529.3584" fill="#84BE84" rx="3" ry="3" style="stroke:#038048;stroke-width:1.0;"/><text fill="#000000" font-family="sans-serif" font-size="14" lengthAdjust="spacing" textLength="184" x="1287.5" y="532.7051">draw(container: Container)</text><ellipse cx="1278.5" cy="545.6553" fill="#84BE84" rx="3" ry="3" style="stroke:#038048;stroke-width:1.0;"/><text fill="#000000" font-family="sans-serif" font-size="14" lengthAdjust="spacing" textLength="321" x="1287.5" y="549.002">change_front(front:str, id:int, num_children:int)</text></g><!--class TreeStyle--><g id="elem_TreeStyle"><rect codeLine="8" fill="#F1F1F1" height="64.2969" id="TreeStyle" rx="2.5" ry="2.5" style="stroke:#181818;stroke-width:0.5;" width="210" x="1214" y="689.64"/><ellipse cx="1282.25" cy="705.64" fill="#ADD1B2" rx="11" ry="11" style="stroke:#181818;stroke-width:1.0;"/><path d="M1285.2188,711.2806 Q1284.6406,711.5775 1284,711.7181 Q1283.3594,711.8744 1282.6563,711.8744 Q1280.1563,711.8744 1278.8281,710.2338 Q1277.5156,708.5775 1277.5156,705.4525 Q1277.5156,702.3275 1278.8281,700.6713 Q1280.1563,699.015 1282.6563,699.015 Q1283.3594,699.015 1284,699.1713 Q1284.6563,699.3275 1285.2188,699.6244 L1285.2188,702.3431 Q1284.5938,701.765 1284,701.4994 Q1283.4063,701.2181 1282.7813,701.2181 Q1281.4375,701.2181 1280.75,702.2963 Q1280.0625,703.3588 1280.0625,705.4525 Q1280.0625,707.5463 1280.75,708.6244 Q1281.4375,709.6869 1282.7813,709.6869 Q1283.4063,709.6869 1284,709.4213 Q1284.5938,709.14 1285.2188,708.5619 L1285.2188,711.2806 Z " fill="#000000"/><text fill="#000000" font-family="sans-serif" font-size="14" lengthAdjust="spacing" textLength="65" x="1302.75" y="710.4867">TreeStyle</text><line style="stroke:#181818;stroke-width:0.5;" x1="1215" x2="1423" y1="721.64" y2="721.64"/><line style="stroke:#181818;stroke-width:0.5;" x1="1215" x2="1423" y1="729.64" y2="729.64"/><ellipse cx="1225" cy="743.2884" fill="#84BE84" rx="3" ry="3" style="stroke:#038048;stroke-width:1.0;"/><text fill="#000000" font-family="sans-serif" font-size="14" lengthAdjust="spacing" textLength="184" x="1234" y="746.6351">draw(container: Container)</text></g><!--class RectangleStyle--><g id="elem_RectangleStyle"><rect codeLine="12" fill="#F1F1F1" height="64.2969" id="RectangleStyle" rx="2.5" ry="2.5" style="stroke:#181818;stroke-width:0.5;" width="210" x="1459" y="689.64"/><ellipse cx="1508.25" cy="705.64" fill="#ADD1B2" rx="11" ry="11" style="stroke:#181818;stroke-width:1.0;"/><path d="M1511.2188,711.2806 Q1510.6406,711.5775 1510,711.7181 Q1509.3594,711.8744 1508.6563,711.8744 Q1506.1563,711.8744 1504.8281,710.2338 Q1503.5156,708.5775 1503.5156,705.4525 Q1503.5156,702.3275 1504.8281,700.6713 Q1506.1563,699.015 1508.6563,699.015 Q1509.3594,699.015 1510,699.1713 Q1510.6563,699.3275 1511.2188,699.6244 L1511.2188,702.3431 Q1510.5938,701.765 1510,701.4994 Q1509.4063,701.2181 1508.7813,701.2181 Q1507.4375,701.2181 1506.75,702.2963 Q1506.0625,703.3588 1506.0625,705.4525 Q1506.0625,707.5463 1506.75,708.6244 Q1507.4375,709.6869 1508.7813,709.6869 Q1509.4063,709.6869 1510,709.4213 Q1510.5938,709.14 1511.2188,708.5619 L1511.2188,711.2806 Z " fill="#000000"/><text fill="#000000" font-family="sans-serif" font-size="14" lengthAdjust="spacing" textLength="103" x="1528.75" y="710.4867">RectangleStyle</text><line style="stroke:#181818;stroke-width:0.5;" x1="1460" x2="1668" y1="721.64" y2="721.64"/><line style="stroke:#181818;stroke-width:0.5;" x1="1460" x2="1668" y1="729.64" y2="729.64"/><ellipse cx="1470" cy="743.2884" fill="#84BE84" rx="3" ry="3" style="stroke:#038048;stroke-width:1.0;"/><text fill="#000000" font-family="sans-serif" font-size="14" lengthAdjust="spacing" textLength="184" x="1479" y="746.6351">draw(container: Container)</text></g><!--class IIconFamily--><g id="elem_IIconFamily"><rect codeLine="21" fill="#F1F1F1" height="64.2969" id="IIconFamily" rx="2.5" ry="2.5" style="stroke:#181818;stroke-width:0.5;" width="203" x="1724.5" y="483.86"/><ellipse cx="1784.75" cy="499.86" fill="#B4A7E5" rx="11" ry="11" style="stroke:#181818;stroke-width:1.0;"/><path d="M1780.6719,495.6256 L1780.6719,493.4694 L1788.0625,493.4694 L1788.0625,495.6256 L1785.5938,495.6256 L1785.5938,503.7038 L1788.0625,503.7038 L1788.0625,505.86 L1780.6719,505.86 L1780.6719,503.7038 L1783.1406,503.7038 L1783.1406,495.6256 L1780.6719,495.6256 Z " fill="#000000"/><text fill="#000000" font-family="sans-serif" font-size="14" font-style="italic" lengthAdjust="spacing" textLength="74" x="1805.25" y="504.7067">IIconFamily</text><line style="stroke:#181818;stroke-width:0.5;" x1="1725.5" x2="1926.5" y1="515.86" y2="515.86"/><line style="stroke:#181818;stroke-width:0.5;" x1="1725.5" x2="1926.5" y1="523.86" y2="523.86"/><ellipse cx="1735.5" cy="537.5084" fill="#84BE84" rx="3" ry="3" style="stroke:#038048;stroke-width:1.0;"/><text fill="#000000" font-family="sans-serif" font-size="14" lengthAdjust="spacing" textLength="177" x="1744.5" y="540.8551">get_icon(is_leaf: bool): str</text></g><!--class PokerFaceIconFamily--><g id="elem_PokerFaceIconFamily"><rect codeLine="25" fill="#F1F1F1" height="64.2969" id="PokerFaceIconFamily" rx="2.5" ry="2.5" style="stroke:#181818;stroke-width:0.5;" width="203" x="1724.5" y="689.64"/><ellipse cx="1751.65" cy="705.64" fill="#ADD1B2" rx="11" ry="11" style="stroke:#181818;stroke-width:1.0;"/><path d="M1754.6188,711.2806 Q1754.0406,711.5775 1753.4,711.7181 Q1752.7594,711.8744 1752.0563,711.8744 Q1749.5563,711.8744 1748.2281,710.2338 Q1746.9156,708.5775 1746.9156,705.4525 Q1746.9156,702.3275 1748.2281,700.6713 Q1749.5563,699.015 1752.0563,699.015 Q1752.7594,699.015 1753.4,699.1713 Q1754.0563,699.3275 1754.6188,699.6244 L1754.6188,702.3431 Q1753.9938,701.765 1753.4,701.4994 Q1752.8063,701.2181 1752.1813,701.2181 Q1750.8375,701.2181 1750.15,702.2963 Q1749.4625,703.3588 1749.4625,705.4525 Q1749.4625,707.5463 1750.15,708.6244 Q1750.8375,709.6869 1752.1813,709.6869 Q1752.8063,709.6869 1753.4,709.4213 Q1753.9938,709.14 1754.6188,708.5619 L1754.6188,711.2806 Z " fill="#000000"/><text fill="#000000" font-family="sans-serif" font-size="14" lengthAdjust="spacing" textLength="144" x="1768.35" y="710.4867">PokerFaceIconFamily</text><line style="stroke:#181818;stroke-width:0.5;" x1="1725.5" x2="1926.5" y1="721.64" y2="721.64"/><line style="stroke:#181818;stroke-width:0.5;" x1="1725.5" x2="1926.5" y1="729.64" y2="729.64"/><ellipse cx="1735.5" cy="743.2884" fill="#84BE84" rx="3" ry="3" style="stroke:#038048;stroke-width:1.0;"/><text fill="#000000" font-family="sans-serif" font-size="14" lengthAdjust="spacing" textLength="177" x="1744.5" y="746.6351">get_icon(is_leaf: bool): str</text></g><!--class DefaultIconFamily--><g id="elem_DefaultIconFamily"><rect codeLine="29" fill="#F1F1F1" height="64.2969" id="DefaultIconFamily" rx="2.5" ry="2.5" style="stroke:#181818;stroke-width:0.5;" width="203" x="1962.5" y="689.64"/><ellipse cx="2000.45" cy="705.64" fill="#ADD1B2" rx="11" ry="11" style="stroke:#181818;stroke-width:1.0;"/><path d="M2003.4188,711.2806 Q2002.8406,711.5775 2002.2,711.7181 Q2001.5594,711.8744 2000.8563,711.8744 Q1998.3563,711.8744 1997.0281,710.2338 Q1995.7156,708.5775 1995.7156,705.4525 Q1995.7156,702.3275 1997.0281,700.6713 Q1998.3563,699.015 2000.8563,699.015 Q2001.5594,699.015 2002.2,699.1713 Q2002.8563,699.3275 2003.4188,699.6244 L2003.4188,702.3431 Q2002.7938,701.765 2002.2,701.4994 Q2001.6063,701.2181 2000.9813,701.2181 Q1999.6375,701.2181 1998.95,702.2963 Q1998.2625,703.3588 1998.2625,705.4525 Q1998.2625,707.5463 1998.95,708.6244 Q1999.6375,709.6869 2000.9813,709.6869 Q2001.6063,709.6869 2002.2,709.4213 Q2002.7938,709.14 2003.4188,708.5619 L2003.4188,711.2806 Z " fill="#000000"/><text fill="#000000" font-family="sans-serif" font-size="14" lengthAdjust="spacing" textLength="120" x="2019.55" y="710.4867">DefaultIconFamily</text><line style="stroke:#181818;stroke-width:0.5;" x1="1963.5" x2="2164.5" y1="721.64" y2="721.64"/><line style="stroke:#181818;stroke-width:0.5;" x1="1963.5" x2="2164.5" y1="729.64" y2="729.64"/><ellipse cx="1973.5" cy="743.2884" fill="#84BE84" rx="3" ry="3" style="stroke:#038048;stroke-width:1.0;"/><text fill="#000000" font-family="sans-serif" font-size="14" lengthAdjust="spacing" textLength="177" x="1982.5" y="746.6351">get_icon(is_leaf: bool): str</text></g><!--class Component--><g id="elem_Component"><rect codeLine="38" fill="#F1F1F1" height="129.4844" id="Component" rx="2.5" ry="2.5" style="stroke:#181818;stroke-width:0.5;" width="177" x="109.5" y="261.78"/><ellipse cx="152.85" cy="277.78" fill="#B4A7E5" rx="11" ry="11" style="stroke:#181818;stroke-width:1.0;"/><path d="M148.7719,273.5456 L148.7719,271.3894 L156.1625,271.3894 L156.1625,273.5456 L153.6938,273.5456 L153.6938,281.6238 L156.1625,281.6238 L156.1625,283.78 L148.7719,283.78 L148.7719,281.6238 L151.2406,281.6238 L151.2406,273.5456 L148.7719,273.5456 Z " fill="#000000"/><text fill="#000000" font-family="sans-serif" font-size="14" font-style="italic" lengthAdjust="spacing" textLength="82" x="173.15" y="282.6267">Component</text><line style="stroke:#181818;stroke-width:0.5;" x1="110.5" x2="285.5" y1="293.78" y2="293.78"/><rect fill="none" height="6" style="stroke:#C82930;stroke-width:1.0;" width="6" x="117.5" y="304.4284"/><text fill="#000000" font-family="sans-serif" font-size="14" lengthAdjust="spacing" textLength="56" x="129.5" y="310.7751">icon: str</text><rect fill="none" height="6" style="stroke:#C82930;stroke-width:1.0;" width="6" x="117.5" y="320.7253"/><text fill="#000000" font-family="sans-serif" font-size="14" lengthAdjust="spacing" textLength="66" x="129.5" y="327.072">name: str</text><rect fill="none" height="6" style="stroke:#C82930;stroke-width:1.0;" width="6" x="117.5" y="337.0222"/><text fill="#000000" font-family="sans-serif" font-size="14" lengthAdjust="spacing" textLength="58" x="129.5" y="343.3689">level: str</text><line style="stroke:#181818;stroke-width:0.5;" x1="110.5" x2="285.5" y1="350.6706" y2="350.6706"/><ellipse cx="120.5" cy="364.3191" fill="#84BE84" rx="3" ry="3" style="stroke:#038048;stroke-width:1.0;"/><text fill="#000000" font-family="sans-serif" font-size="14" lengthAdjust="spacing" textLength="120" x="129.5" y="367.6657">draw(style: IStyle)</text><ellipse cx="120.5" cy="380.6159" fill="#84BE84" rx="3" ry="3" style="stroke:#038048;stroke-width:1.0;"/><text fill="#000000" font-family="sans-serif" font-size="14" lengthAdjust="spacing" textLength="151" x="129.5" y="383.9626">accept(visitor: IVisitor)</text></g><!--class Container--><g id="elem_Container"><rect codeLine="46" fill="#F1F1F1" height="129.4844" id="Container" rx="2.5" ry="2.5" style="stroke:#181818;stroke-width:0.5;" width="233" x="58.5" y="451.27"/><ellipse cx="137.25" cy="467.27" fill="#ADD1B2" rx="11" ry="11" style="stroke:#181818;stroke-width:1.0;"/><path d="M140.2188,472.9106 Q139.6406,473.2075 139,473.3481 Q138.3594,473.5044 137.6563,473.5044 Q135.1563,473.5044 133.8281,471.8638 Q132.5156,470.2075 132.5156,467.0825 Q132.5156,463.9575 133.8281,462.3013 Q135.1563,460.645 137.6563,460.645 Q138.3594,460.645 139,460.8013 Q139.6563,460.9575 140.2188,461.2544 L140.2188,463.9731 Q139.5938,463.395 139,463.1294 Q138.4063,462.8481 137.7813,462.8481 Q136.4375,462.8481 135.75,463.9263 Q135.0625,464.9888 135.0625,467.0825 Q135.0625,469.1763 135.75,470.2544 Q136.4375,471.3169 137.7813,471.3169 Q138.4063,471.3169 139,471.0513 Q139.5938,470.77 140.2188,470.1919 L140.2188,472.9106 Z " fill="#000000"/><text fill="#000000" font-family="sans-serif" font-size="14" lengthAdjust="spacing" textLength="67" x="157.75" y="472.1167">Container</text><line style="stroke:#181818;stroke-width:0.5;" x1="59.5" x2="290.5" y1="483.27" y2="483.27"/><rect fill="none" height="6" style="stroke:#C82930;stroke-width:1.0;" width="6" x="66.5" y="493.9184"/><text fill="#000000" font-family="sans-serif" font-size="14" lengthAdjust="spacing" textLength="83" x="78.5" y="500.2651">children: list</text><line style="stroke:#181818;stroke-width:0.5;" x1="59.5" x2="290.5" y1="507.5669" y2="507.5669"/><ellipse cx="69.5" cy="521.2153" fill="#84BE84" rx="3" ry="3" style="stroke:#038048;stroke-width:1.0;"/><text fill="#000000" font-family="sans-serif" font-size="14" lengthAdjust="spacing" textLength="120" x="78.5" y="524.562">draw(style: IStyle)</text><ellipse cx="69.5" cy="537.5122" fill="#84BE84" rx="3" ry="3" style="stroke:#038048;stroke-width:1.0;"/><text fill="#000000" font-family="sans-serif" font-size="14" lengthAdjust="spacing" textLength="207" x="78.5" y="540.8589">add(component: Component)</text><ellipse cx="69.5" cy="553.8091" fill="#84BE84" rx="3" ry="3" style="stroke:#038048;stroke-width:1.0;"/><text fill="#000000" font-family="sans-serif" font-size="14" lengthAdjust="spacing" textLength="151" x="78.5" y="557.1557">accept(visitor: IVisitor)</text><ellipse cx="69.5" cy="570.1059" fill="#84BE84" rx="3" ry="3" style="stroke:#038048;stroke-width:1.0;"/><text fill="#000000" font-family="sans-serif" font-size="14" lengthAdjust="spacing" textLength="171" x="78.5" y="573.4526">create_iterator(): IIterator</text></g><!--class Leaf--><g id="elem_Leaf"><rect codeLine="54" fill="#F1F1F1" height="80.5938" id="Leaf" rx="2.5" ry="2.5" style="stroke:#181818;stroke-width:0.5;" width="177" x="53.5" y="681.49"/><ellipse cx="123.75" cy="697.49" fill="#ADD1B2" rx="11" ry="11" style="stroke:#181818;stroke-width:1.0;"/><path d="M126.7188,703.1306 Q126.1406,703.4275 125.5,703.5681 Q124.8594,703.7244 124.1563,703.7244 Q121.6563,703.7244 120.3281,702.0838 Q119.0156,700.4275 119.0156,697.3025 Q119.0156,694.1775 120.3281,692.5213 Q121.6563,690.865 124.1563,690.865 Q124.8594,690.865 125.5,691.0213 Q126.1563,691.1775 126.7188,691.4744 L126.7188,694.1931 Q126.0938,693.615 125.5,693.3494 Q124.9063,693.0681 124.2813,693.0681 Q122.9375,693.0681 122.25,694.1463 Q121.5625,695.2088 121.5625,697.3025 Q121.5625,699.3963 122.25,700.4744 Q122.9375,701.5369 124.2813,701.5369 Q124.9063,701.5369 125.5,701.2713 Q126.0938,700.99 126.7188,700.4119 L126.7188,703.1306 Z " fill="#000000"/><text fill="#000000" font-family="sans-serif" font-size="14" lengthAdjust="spacing" textLength="28" x="144.25" y="702.3367">Leaf</text><line style="stroke:#181818;stroke-width:0.5;" x1="54.5" x2="229.5" y1="713.49" y2="713.49"/><line style="stroke:#181818;stroke-width:0.5;" x1="54.5" x2="229.5" y1="721.49" y2="721.49"/><ellipse cx="64.5" cy="735.1384" fill="#84BE84" rx="3" ry="3" style="stroke:#038048;stroke-width:1.0;"/><text fill="#000000" font-family="sans-serif" font-size="14" lengthAdjust="spacing" textLength="120" x="73.5" y="738.4851">draw(style: IStyle)</text><ellipse cx="64.5" cy="751.4353" fill="#84BE84" rx="3" ry="3" style="stroke:#038048;stroke-width:1.0;"/><text fill="#000000" font-family="sans-serif" font-size="14" lengthAdjust="spacing" textLength="151" x="73.5" y="754.782">accept(visitor: IVisitor)</text></g><!--class IIterator--><g id="elem_IIterator"><rect codeLine="67" fill="#F1F1F1" height="129.4844" id="IIterator" rx="2.5" ry="2.5" style="stroke:#181818;stroke-width:0.5;" width="214" x="365" y="657.05"/><ellipse cx="441.75" cy="673.05" fill="#B4A7E5" rx="11" ry="11" style="stroke:#181818;stroke-width:1.0;"/><path d="M437.6719,668.8156 L437.6719,666.6594 L445.0625,666.6594 L445.0625,668.8156 L442.5938,668.8156 L442.5938,676.8938 L445.0625,676.8938 L445.0625,679.05 L437.6719,679.05 L437.6719,676.8938 L440.1406,676.8938 L440.1406,668.8156 L437.6719,668.8156 Z " fill="#000000"/><text fill="#000000" font-family="sans-serif" font-size="14" font-style="italic" lengthAdjust="spacing" textLength="52" x="462.25" y="677.8967">IIterator</text><line style="stroke:#181818;stroke-width:0.5;" x1="366" x2="578" y1="689.05" y2="689.05"/><line style="stroke:#181818;stroke-width:0.5;" x1="366" x2="578" y1="697.05" y2="697.05"/><ellipse cx="376" cy="710.6984" fill="#84BE84" rx="3" ry="3" style="stroke:#038048;stroke-width:1.0;"/><text fill="#000000" font-family="sans-serif" font-size="14" lengthAdjust="spacing" textLength="126" x="385" y="714.0451">first(): Component</text><ellipse cx="376" cy="726.9953" fill="#84BE84" rx="3" ry="3" style="stroke:#038048;stroke-width:1.0;"/><text fill="#000000" font-family="sans-serif" font-size="14" lengthAdjust="spacing" textLength="131" x="385" y="730.342">next(): Component</text><ellipse cx="376" cy="743.2922" fill="#84BE84" rx="3" ry="3" style="stroke:#038048;stroke-width:1.0;"/><text fill="#000000" font-family="sans-serif" font-size="14" lengthAdjust="spacing" textLength="103" x="385" y="746.6389">is_done(): bool</text><ellipse cx="376" cy="759.5891" fill="#84BE84" rx="3" ry="3" style="stroke:#038048;stroke-width:1.0;"/><text fill="#000000" font-family="sans-serif" font-size="14" lengthAdjust="spacing" textLength="188" x="385" y="762.9357">current_item(): Component</text><ellipse cx="376" cy="775.8859" fill="#84BE84" rx="3" ry="3" style="stroke:#038048;stroke-width:1.0;"/><text fill="#000000" font-family="sans-serif" font-size="14" lengthAdjust="spacing" textLength="80" x="385" y="779.2326">length(): int</text></g><!--class ComponentIterator--><g id="elem_ComponentIterator"><rect codeLine="75" fill="#F1F1F1" height="162.0781" id="ComponentIterator" rx="2.5" ry="2.5" style="stroke:#181818;stroke-width:0.5;" width="214" x="614" y="640.75"/><ellipse cx="651.95" cy="656.75" fill="#ADD1B2" rx="11" ry="11" style="stroke:#181818;stroke-width:1.0;"/><path d="M654.9188,662.3906 Q654.3406,662.6875 653.7,662.8281 Q653.0594,662.9844 652.3563,662.9844 Q649.8563,662.9844 648.5281,661.3438 Q647.2156,659.6875 647.2156,656.5625 Q647.2156,653.4375 648.5281,651.7813 Q649.8563,650.125 652.3563,650.125 Q653.0594,650.125 653.7,650.2813 Q654.3563,650.4375 654.9188,650.7344 L654.9188,653.4531 Q654.2938,652.875 653.7,652.6094 Q653.1063,652.3281 652.4813,652.3281 Q651.1375,652.3281 650.45,653.4063 Q649.7625,654.4688 649.7625,656.5625 Q649.7625,658.6563 650.45,659.7344 Q651.1375,660.7969 652.4813,660.7969 Q653.1063,660.7969 653.7,660.5313 Q654.2938,660.25 654.9188,659.6719 L654.9188,662.3906 Z " fill="#000000"/><text fill="#000000" font-family="sans-serif" font-size="14" lengthAdjust="spacing" textLength="131" x="671.05" y="661.5967">ComponentIterator</text><line style="stroke:#181818;stroke-width:0.5;" x1="615" x2="827" y1="672.75" y2="672.75"/><rect fill="none" height="6" style="stroke:#C82930;stroke-width:1.0;" width="6" x="622" y="683.3984"/><text fill="#000000" font-family="sans-serif" font-size="14" lengthAdjust="spacing" textLength="141" x="634" y="689.7451">container: Container</text><rect fill="none" height="6" style="stroke:#C82930;stroke-width:1.0;" width="6" x="622" y="699.6953"/><text fill="#000000" font-family="sans-serif" font-size="14" lengthAdjust="spacing" textLength="76" x="634" y="706.042">current: int</text><line style="stroke:#181818;stroke-width:0.5;" x1="615" x2="827" y1="713.3438" y2="713.3438"/><ellipse cx="625" cy="726.9922" fill="#84BE84" rx="3" ry="3" style="stroke:#038048;stroke-width:1.0;"/><text fill="#000000" font-family="sans-serif" font-size="14" lengthAdjust="spacing" textLength="126" x="634" y="730.3389">first(): Component</text><ellipse cx="625" cy="743.2891" fill="#84BE84" rx="3" ry="3" style="stroke:#038048;stroke-width:1.0;"/><text fill="#000000" font-family="sans-serif" font-size="14" lengthAdjust="spacing" textLength="131" x="634" y="746.6357">next(): Component</text><ellipse cx="625" cy="759.5859" fill="#84BE84" rx="3" ry="3" style="stroke:#038048;stroke-width:1.0;"/><text fill="#000000" font-family="sans-serif" font-size="14" lengthAdjust="spacing" textLength="103" x="634" y="762.9326">is_done(): bool</text><ellipse cx="625" cy="775.8828" fill="#84BE84" rx="3" ry="3" style="stroke:#038048;stroke-width:1.0;"/><text fill="#000000" font-family="sans-serif" font-size="14" lengthAdjust="spacing" textLength="188" x="634" y="779.2295">current_item(): Component</text><ellipse cx="625" cy="792.1797" fill="#84BE84" rx="3" ry="3" style="stroke:#038048;stroke-width:1.0;"/><text fill="#000000" font-family="sans-serif" font-size="14" lengthAdjust="spacing" textLength="80" x="634" y="795.5264">length(): int</text></g><!--class IVisitor--><g id="elem_IVisitor"><rect codeLine="90" fill="#F1F1F1" height="80.5938" id="IVisitor" rx="2.5" ry="2.5" style="stroke:#181818;stroke-width:0.5;" width="275" x="883.5" y="475.71"/><ellipse cx="994.25" cy="491.71" fill="#B4A7E5" rx="11" ry="11" style="stroke:#181818;stroke-width:1.0;"/><path d="M990.1719,487.4756 L990.1719,485.3194 L997.5625,485.3194 L997.5625,487.4756 L995.0938,487.4756 L995.0938,495.5538 L997.5625,495.5538 L997.5625,497.71 L990.1719,497.71 L990.1719,495.5538 L992.6406,495.5538 L992.6406,487.4756 L990.1719,487.4756 Z " fill="#000000"/><text fill="#000000" font-family="sans-serif" font-size="14" font-style="italic" lengthAdjust="spacing" textLength="45" x="1014.75" y="496.5567">IVisitor</text><line style="stroke:#181818;stroke-width:0.5;" x1="884.5" x2="1157.5" y1="507.71" y2="507.71"/><line style="stroke:#181818;stroke-width:0.5;" x1="884.5" x2="1157.5" y1="515.71" y2="515.71"/><ellipse cx="894.5" cy="529.3584" fill="#84BE84" rx="3" ry="3" style="stroke:#038048;stroke-width:1.0;"/><text fill="#000000" font-family="sans-serif" font-size="14" lengthAdjust="spacing" textLength="128" x="903.5" y="532.7051">visit_leaf(leaf: Leaf)</text><ellipse cx="894.5" cy="545.6553" fill="#84BE84" rx="3" ry="3" style="stroke:#038048;stroke-width:1.0;"/><text fill="#000000" font-family="sans-serif" font-size="14" lengthAdjust="spacing" textLength="249" x="903.5" y="549.002">visit_container(container: Container)</text></g><!--class DrawVisitor--><g id="elem_DrawVisitor"><rect codeLine="95" fill="#F1F1F1" height="80.5938" id="DrawVisitor" rx="2.5" ry="2.5" style="stroke:#181818;stroke-width:0.5;" width="275" x="883.5" y="681.49"/><ellipse cx="978.25" cy="697.49" fill="#ADD1B2" rx="11" ry="11" style="stroke:#181818;stroke-width:1.0;"/><path d="M981.2188,703.1306 Q980.6406,703.4275 980,703.5681 Q979.3594,703.7244 978.6563,703.7244 Q976.1563,703.7244 974.8281,702.0838 Q973.5156,700.4275 973.5156,697.3025 Q973.5156,694.1775 974.8281,692.5213 Q976.1563,690.865 978.6563,690.865 Q979.3594,690.865 980,691.0213 Q980.6563,691.1775 981.2188,691.4744 L981.2188,694.1931 Q980.5938,693.615 980,693.3494 Q979.4063,693.0681 978.7813,693.0681 Q977.4375,693.0681 976.75,694.1463 Q976.0625,695.2088 976.0625,697.3025 Q976.0625,699.3963 976.75,700.4744 Q977.4375,701.5369 978.7813,701.5369 Q979.4063,701.5369 980,701.2713 Q980.5938,700.99 981.2188,700.4119 L981.2188,703.1306 Z " fill="#000000"/><text fill="#000000" font-family="sans-serif" font-size="14" lengthAdjust="spacing" textLength="77" x="998.75" y="702.3367">DrawVisitor</text><line style="stroke:#181818;stroke-width:0.5;" x1="884.5" x2="1157.5" y1="713.49" y2="713.49"/><line style="stroke:#181818;stroke-width:0.5;" x1="884.5" x2="1157.5" y1="721.49" y2="721.49"/><ellipse cx="894.5" cy="735.1384" fill="#84BE84" rx="3" ry="3" style="stroke:#038048;stroke-width:1.0;"/><text fill="#000000" font-family="sans-serif" font-size="14" lengthAdjust="spacing" textLength="128" x="903.5" y="738.4851">visit_leaf(leaf: Leaf)</text><ellipse cx="894.5" cy="751.4353" fill="#84BE84" rx="3" ry="3" style="stroke:#038048;stroke-width:1.0;"/><text fill="#000000" font-family="sans-serif" font-size="14" lengthAdjust="spacing" textLength="249" x="903.5" y="754.782">visit_container(container: Container)</text></g><!--class StyleFactory--><g id="elem_StyleFactory"><rect codeLine="105" fill="#F1F1F1" height="64.2969" id="StyleFactory" rx="2.5" ry="2.5" style="stroke:#181818;stroke-width:0.5;" width="239" x="1321.5" y="294.38"/><ellipse cx="1395.25" cy="310.38" fill="#ADD1B2" rx="11" ry="11" style="stroke:#181818;stroke-width:1.0;"/><path d="M1398.2188,316.0206 Q1397.6406,316.3175 1397,316.4581 Q1396.3594,316.6144 1395.6563,316.6144 Q1393.1563,316.6144 1391.8281,314.9738 Q1390.5156,313.3175 1390.5156,310.1925 Q1390.5156,307.0675 1391.8281,305.4113 Q1393.1563,303.755 1395.6563,303.755 Q1396.3594,303.755 1397,303.9113 Q1397.6563,304.0675 1398.2188,304.3644 L1398.2188,307.0831 Q1397.5938,306.505 1397,306.2394 Q1396.4063,305.9581 1395.7813,305.9581 Q1394.4375,305.9581 1393.75,307.0363 Q1393.0625,308.0988 1393.0625,310.1925 Q1393.0625,312.2863 1393.75,313.3644 Q1394.4375,314.4269 1395.7813,314.4269 Q1396.4063,314.4269 1397,314.1613 Q1397.5938,313.88 1398.2188,313.3019 L1398.2188,316.0206 Z " fill="#000000"/><text fill="#000000" font-family="sans-serif" font-size="14" lengthAdjust="spacing" textLength="83" x="1415.75" y="315.2267">StyleFactory</text><line style="stroke:#181818;stroke-width:0.5;" x1="1322.5" x2="1559.5" y1="326.38" y2="326.38"/><line style="stroke:#181818;stroke-width:0.5;" x1="1322.5" x2="1559.5" y1="334.38" y2="334.38"/><ellipse cx="1332.5" cy="348.0284" fill="#84BE84" rx="3" ry="3" style="stroke:#038048;stroke-width:1.0;"/><text fill="#000000" font-family="sans-serif" font-size="14" lengthAdjust="spacing" textLength="213" x="1341.5" y="351.3751">get_style(style_type: str): IStyle</text></g><!--class IconFamilyFactory--><g id="elem_IconFamilyFactory"><rect codeLine="109" fill="#F1F1F1" height="64.2969" id="IconFamilyFactory" rx="2.5" ry="2.5" style="stroke:#181818;stroke-width:0.5;" width="325" x="1595.5" y="294.38"/><ellipse cx="1693.25" cy="310.38" fill="#ADD1B2" rx="11" ry="11" style="stroke:#181818;stroke-width:1.0;"/><path d="M1696.2188,316.0206 Q1695.6406,316.3175 1695,316.4581 Q1694.3594,316.6144 1693.6563,316.6144 Q1691.1563,316.6144 1689.8281,314.9738 Q1688.5156,313.3175 1688.5156,310.1925 Q1688.5156,307.0675 1689.8281,305.4113 Q1691.1563,303.755 1693.6563,303.755 Q1694.3594,303.755 1695,303.9113 Q1695.6563,304.0675 1696.2188,304.3644 L1696.2188,307.0831 Q1695.5938,306.505 1695,306.2394 Q1694.4063,305.9581 1693.7813,305.9581 Q1692.4375,305.9581 1691.75,307.0363 Q1691.0625,308.0988 1691.0625,310.1925 Q1691.0625,312.2863 1691.75,313.3644 Q1692.4375,314.4269 1693.7813,314.4269 Q1694.4063,314.4269 1695,314.1613 Q1695.5938,313.88 1696.2188,313.3019 L1696.2188,316.0206 Z " fill="#000000"/><text fill="#000000" font-family="sans-serif" font-size="14" lengthAdjust="spacing" textLength="121" x="1713.75" y="315.2267">IconFamilyFactory</text><line style="stroke:#181818;stroke-width:0.5;" x1="1596.5" x2="1919.5" y1="326.38" y2="326.38"/><line style="stroke:#181818;stroke-width:0.5;" x1="1596.5" x2="1919.5" y1="334.38" y2="334.38"/><ellipse cx="1606.5" cy="348.0284" fill="#84BE84" rx="3" ry="3" style="stroke:#038048;stroke-width:1.0;"/><text fill="#000000" font-family="sans-serif" font-size="14" lengthAdjust="spacing" textLength="299" x="1615.5" y="351.3751">get_icon_family(family_type: str): IIconFamily</text></g><!--class FunnyJsonExplorer--><g id="elem_FunnyJsonExplorer"><rect codeLine="118" fill="#F1F1F1" height="145.7813" id="FunnyJsonExplorer" rx="2.5" ry="2.5" style="stroke:#181818;stroke-width:0.5;" width="183" x="1349.5" y="41"/><ellipse cx="1375.3" cy="57" fill="#ADD1B2" rx="11" ry="11" style="stroke:#181818;stroke-width:1.0;"/><path d="M1378.2688,62.6406 Q1377.6906,62.9375 1377.05,63.0781 Q1376.4094,63.2344 1375.7063,63.2344 Q1373.2063,63.2344 1371.8781,61.5938 Q1370.5656,59.9375 1370.5656,56.8125 Q1370.5656,53.6875 1371.8781,52.0313 Q1373.2063,50.375 1375.7063,50.375 Q1376.4094,50.375 1377.05,50.5313 Q1377.7063,50.6875 1378.2688,50.9844 L1378.2688,53.7031 Q1377.6438,53.125 1377.05,52.8594 Q1376.4563,52.5781 1375.8313,52.5781 Q1374.4875,52.5781 1373.8,53.6563 Q1373.1125,54.7188 1373.1125,56.8125 Q1373.1125,58.9063 1373.8,59.9844 Q1374.4875,61.0469 1375.8313,61.0469 Q1376.4563,61.0469 1377.05,60.7813 Q1377.6438,60.5 1378.2688,59.9219 L1378.2688,62.6406 Z " fill="#000000"/><text fill="#000000" font-family="sans-serif" font-size="14" lengthAdjust="spacing" textLength="127" x="1391.7" y="61.8467">FunnyJsonExplorer</text><line style="stroke:#181818;stroke-width:0.5;" x1="1350.5" x2="1531.5" y1="73" y2="73"/><rect fill="none" height="6" style="stroke:#C82930;stroke-width:1.0;" width="6" x="1357.5" y="83.6484"/><text fill="#000000" font-family="sans-serif" font-size="14" lengthAdjust="spacing" textLength="82" x="1369.5" y="89.9951">json_file: str</text><rect fill="none" height="6" style="stroke:#C82930;stroke-width:1.0;" width="6" x="1357.5" y="99.9453"/><text fill="#000000" font-family="sans-serif" font-size="14" lengthAdjust="spacing" textLength="77" x="1369.5" y="106.292">style: IStyle</text><rect fill="none" height="6" style="stroke:#C82930;stroke-width:1.0;" width="6" x="1357.5" y="116.2422"/><text fill="#000000" font-family="sans-serif" font-size="14" lengthAdjust="spacing" textLength="157" x="1369.5" y="122.5889">icon_family: IIconFamily</text><rect fill="none" height="6" style="stroke:#C82930;stroke-width:1.0;" width="6" x="1357.5" y="132.5391"/><text fill="#000000" font-family="sans-serif" font-size="14" lengthAdjust="spacing" textLength="104" x="1369.5" y="138.8857">root: Container</text><line style="stroke:#181818;stroke-width:0.5;" x1="1350.5" x2="1531.5" y1="146.1875" y2="146.1875"/><ellipse cx="1360.5" cy="159.8359" fill="#84BE84" rx="3" ry="3" style="stroke:#038048;stroke-width:1.0;"/><text fill="#000000" font-family="sans-serif" font-size="14" lengthAdjust="spacing" textLength="39" x="1369.5" y="163.1826">load()</text><ellipse cx="1360.5" cy="176.1328" fill="#84BE84" rx="3" ry="3" style="stroke:#038048;stroke-width:1.0;"/><text fill="#000000" font-family="sans-serif" font-size="14" lengthAdjust="spacing" textLength="47" x="1369.5" y="179.4795">show()</text></g><!--reverse link IStyle to TreeStyle--><g id="link_IStyle_TreeStyle"><path codeLine="16" d="M1345.75,574.67 C1345.75,613.55 1345.75,653.44 1345.75,689.33 " fill="none" id="IStyle-backto-TreeStyle" style="stroke:#181818;stroke-width:1.0;stroke-dasharray:7.0,7.0;"/><polygon fill="none" points="1345.75,556.67,1339.75,574.67,1351.75,574.67,1345.75,556.67" style="stroke:#181818;stroke-width:1.0;"/></g><!--reverse link IStyle to RectangleStyle--><g id="link_IStyle_RectangleStyle"><path codeLine="17" d="M1536.75,574.67 C1536.75,613.55 1536.75,653.44 1536.75,689.33 " fill="none" id="IStyle-backto-RectangleStyle" style="stroke:#181818;stroke-width:1.0;stroke-dasharray:7.0,7.0;"/><polygon fill="none" points="1536.75,556.67,1530.75,574.67,1542.75,574.67,1536.75,556.67" style="stroke:#181818;stroke-width:1.0;"/></g><!--reverse link IIconFamily to PokerFaceIconFamily--><g id="link_IIconFamily_PokerFaceIconFamily"><path codeLine="33" d="M1826,566.62 C1826,605.15 1826,650.87 1826,689.34 " fill="none" id="IIconFamily-backto-PokerFaceIconFamily" style="stroke:#181818;stroke-width:1.0;stroke-dasharray:7.0,7.0;"/><polygon fill="none" points="1826,548.62,1820,566.62,1832,566.62,1826,548.62" style="stroke:#181818;stroke-width:1.0;"/></g><!--reverse link IIconFamily to DefaultIconFamily--><g id="link_IIconFamily_DefaultIconFamily"><path codeLine="34" d="M1945.97,516.83 C2010.57,516.83 2064,516.83 2064,516.83 C2064,516.83 2064,631.52 2064,689.31 " fill="none" id="IIconFamily-backto-DefaultIconFamily" style="stroke:#181818;stroke-width:1.0;stroke-dasharray:7.0,7.0;"/><polygon fill="none" points="1927.97,516.83,1945.97,522.83,1945.97,510.83,1927.97,516.83" style="stroke:#181818;stroke-width:1.0;"/></g><!--reverse link Component to Leaf--><g id="link_Component_Leaf"><path codeLine="59" d="M91.31,326.83 C50.72,326.83 29.5,326.83 29.5,326.83 C29.5,326.83 29.5,721.83 29.5,721.83 C29.5,721.83 39.29,721.83 53.08,721.83 " fill="none" id="Component-backto-Leaf" style="stroke:#181818;stroke-width:1.0;stroke-dasharray:7.0,7.0;"/><polygon fill="none" points="109.31,326.83,91.31,320.83,91.31,332.83,109.31,326.83" style="stroke:#181818;stroke-width:1.0;"/></g><!--reverse link Component to Container--><g id="link_Component_Container"><path codeLine="60" d="M198,409.74 C198,428.9 198,431.85 198,451 " fill="none" id="Component-backto-Container" style="stroke:#181818;stroke-width:1.0;stroke-dasharray:7.0,7.0;"/><polygon fill="none" points="198,391.74,192,409.74,204,409.74,198,391.74" style="stroke:#181818;stroke-width:1.0;"/></g><!--reverse link Container to Leaf--><g id="link_Container_Leaf"><path codeLine="62" d="M115.83,593.12 C115.83,625.85 115.83,652.51 115.83,681.01 " fill="none" id="Container-backto-Leaf" style="stroke:#181818;stroke-width:1.0;"/><polygon fill="none" points="115.83,581.12,111.83,587.12,115.83,593.12,119.83,587.12,115.83,581.12" style="stroke:#181818;stroke-width:1.0;"/></g><!--reverse link Container to Container--><g id="link_Container_Container"><path codeLine="63" d="M84,438.86 C84,422.66 84,421.83 84,421.83 C84,421.83 41.5,421.83 41.5,421.83 C41.5,421.83 41.5,610.83 41.5,610.83 C41.5,610.83 173.17,610.83 173.17,610.83 C173.17,610.83 173.17,597.63 173.17,581.09 " fill="none" id="Container-backto-Container" style="stroke:#181818;stroke-width:1.0;"/><polygon fill="none" points="84,450.86,88,444.86,84,438.86,80,444.86,84,450.86" style="stroke:#181818;stroke-width:1.0;"/></g><!--link Container to IIterator--><g id="link_Container_IIterator"><path codeLine="85" d="M250.83,581.24 C250.83,623.17 250.83,669.83 250.83,669.83 C250.83,669.83 302.31,669.83 358.66,669.83 " fill="none" id="Container-to-IIterator" style="stroke:#181818;stroke-width:1.0;"/><polygon fill="#181818" points="364.66,669.83,355.66,665.83,359.66,669.83,355.66,673.83,364.66,669.83" style="stroke:#181818;stroke-width:1.0;"/></g><!--link Container to ComponentIterator--><g id="link_Container_ComponentIterator"><path codeLine="86" d="M271.17,580.96 C271.17,615.06 271.17,649.83 271.17,649.83 C271.17,649.83 474.47,649.83 607.54,649.83 " fill="none" id="Container-to-ComponentIterator" style="stroke:#181818;stroke-width:1.0;"/><polygon fill="#181818" points="613.54,649.83,604.54,645.83,608.54,649.83,604.54,653.83,613.54,649.83" style="stroke:#181818;stroke-width:1.0;"/></g><!--reverse link IVisitor to DrawVisitor--><g id="link_IVisitor_DrawVisitor"><path codeLine="100" d="M1021,574.67 C1021,610.74 1021,645.17 1021,681.22 " fill="none" id="IVisitor-backto-DrawVisitor" style="stroke:#181818;stroke-width:1.0;stroke-dasharray:7.0,7.0;"/><polygon fill="none" points="1021,556.67,1015,574.67,1027,574.67,1021,556.67" style="stroke:#181818;stroke-width:1.0;"/></g><!--link Component to IVisitor--><g id="link_Component_IVisitor"><path codeLine="101" d="M286.86,375.83 C499.67,375.83 1021,375.83 1021,375.83 C1021,375.83 1021,428.06 1021,469.46 " fill="none" id="Component-to-IVisitor" style="stroke:#181818;stroke-width:1.0;"/><polygon fill="#181818" points="1021,475.46,1025,466.46,1021,470.46,1017,466.46,1021,475.46" style="stroke:#181818;stroke-width:1.0;"/></g><!--link StyleFactory to IStyle--><g id="link_StyleFactory_IStyle"><path codeLine="113" d="M1441,359.1 C1441,391.27 1441,434.55 1441,469.29 " fill="none" id="StyleFactory-to-IStyle" style="stroke:#181818;stroke-width:1.0;"/><polygon fill="#181818" points="1441,475.29,1445,466.29,1441,470.29,1437,466.29,1441,475.29" style="stroke:#181818;stroke-width:1.0;"/></g><!--link IconFamilyFactory to IIconFamily--><g id="link_IconFamilyFactory_IIconFamily"><path codeLine="114" d="M1822.5,359.1 C1822.5,393.91 1822.5,442.77 1822.5,477.54 " fill="none" id="IconFamilyFactory-to-IIconFamily" style="stroke:#181818;stroke-width:1.0;"/><polygon fill="#181818" points="1822.5,483.54,1826.5,474.54,1822.5,478.54,1818.5,474.54,1822.5,483.54" style="stroke:#181818;stroke-width:1.0;"/></g><!--link FunnyJsonExplorer to StyleFactory--><g id="link_FunnyJsonExplorer_StyleFactory"><path codeLine="127" d="M1471.5,187.07 C1471.5,223.47 1471.5,259.63 1471.5,287.98 " fill="none" id="FunnyJsonExplorer-to-StyleFactory" style="stroke:#181818;stroke-width:1.0;"/><polygon fill="#181818" points="1471.5,293.98,1475.5,284.98,1471.5,288.98,1467.5,284.98,1471.5,293.98" style="stroke:#181818;stroke-width:1.0;"/></g><!--link FunnyJsonExplorer to IconFamilyFactory--><g id="link_FunnyJsonExplorer_IconFamilyFactory"><path codeLine="128" d="M1532.69,114.83 C1626.31,114.83 1758,114.83 1758,114.83 C1758,114.83 1758,228.53 1758,287.91 " fill="none" id="FunnyJsonExplorer-to-IconFamilyFactory" style="stroke:#181818;stroke-width:1.0;"/><polygon fill="#181818" points="1758,293.91,1762,284.91,1758,288.91,1754,284.91,1758,293.91" style="stroke:#181818;stroke-width:1.0;"/></g><!--link FunnyJsonExplorer to Component--><g id="link_FunnyJsonExplorer_Component"><path codeLine="129" d="M1410.5,187.2 C1410.5,231.25 1410.5,278.83 1410.5,278.83 C1410.5,278.83 572.18,278.83 292.67,278.83 " fill="none" id="FunnyJsonExplorer-to-Component" style="stroke:#181818;stroke-width:1.0;"/><polygon fill="#181818" points="286.67,278.83,295.67,282.83,291.67,278.83,295.67,274.83,286.67,278.83" style="stroke:#181818;stroke-width:1.0;"/></g><!--SRC=[pLRDRjim3BxdAOIU7BJk0nZ3Bkq2UDXXs8PT3Ssc4wsoP4XAss3hkqy_jYLPZf6jmp0V4eUao8yVVnJvG5YF1UuG9GpKgGV4XJhmJO_h1xm7TFLPdIYWaYaGBQxX2ltO8FsGKO1AP-74vhbk17xAQiuKrZv5WUx6rwstgG-OxQ5gXTPbzhEGIjmWqXJQzGrYnwwg3uGs0fYHkACl6_jLKomb-Y80VZTsvE0Jr4gZe7_gPSZypS_RMmycqSHHDlhin6sfGw0TxWWzhJ9ix0Qp0EGUL4Mq9YEoee3R0dtZd6uBf8bCa_t87q3ijBk_uUmUMdoawdMkmhGiKmiGbmsJy16hTxphEGEcrZZrHXvvRb1xc5R4S0Sp4OL7eB7CDOmq1Iw6uWUzZkiQUfKz4aaKrzrKVdLl2oqvDLe8Qve3FQHINHgqQNG73qaMFj-BSRan5O0LL4JJXhKcqrKio-57Ylw3hdOoHgzYnPV95ju4M99Fj8sdHXPvdeU7Gh4_4utaaDpwF8v6GQuj4L8PVYPeNiVW-PnApqYZHKPhfYHW_YXqoPMXlZjpbWBRguDHaa4ywwNXn0BSV6cv1LeNt3l-xrBqjSppjxEUZ7K93L6zXwPRBVTe4rJRTgtTRfbRSQR9jdFzHFAbDzAz7fX_4MrAoQrJ7tKsN9RRKHNIfhUq5X6G8rqElvrnfqkk1Bi7t3Qep1yDkq6tus98kV3R_On3iwshrbfaxYlsExj51kSHH9jVS6qd8LrpBTypxvvxoWM8c8BTaR7JUydPg0wdxhiqa0cTNodHZepleo73D1zh8JXNInDyJJbkig15v84_PL4Ff41DiY4zAsO9KoksVgnVVW40]--></g></svg>